<mxfile host="app.diagrams.net" agent="Mozilla/5.0 (Windows NT 10.0; Win64; x64) AppleWebKit/537.36 (KHTML, like Gecko) Chrome/131.0.0.0 Safari/537.36" version="25.0.3" pages="2">
  <diagram name="Architecture" id="mpwsE6aWvqgUhCIAoAwH">
    <mxGraphModel dx="722" dy="417" grid="1" gridSize="10" guides="1" tooltips="1" connect="1" arrows="1" fold="1" page="1" pageScale="1" pageWidth="850" pageHeight="1100" math="0" shadow="0">
      <root>
        <mxCell id="0" />
        <mxCell id="1" parent="0" />
        <mxCell id="z77YXMJVh_XE8eyvgZif-7" value="" style="group" vertex="1" connectable="0" parent="1">
          <mxGeometry x="40" y="40" width="200" height="160" as="geometry" />
        </mxCell>
        <mxCell id="z77YXMJVh_XE8eyvgZif-1" value="" style="rounded=1;whiteSpace=wrap;html=1;fillColor=#fff2cc;strokeColor=#d6b656;sketch=1;curveFitting=1;jiggle=2;" vertex="1" parent="z77YXMJVh_XE8eyvgZif-7">
          <mxGeometry width="200" height="160" as="geometry" />
        </mxCell>
        <mxCell id="z77YXMJVh_XE8eyvgZif-2" value="" style="shape=image;verticalLabelPosition=bottom;labelBackgroundColor=default;verticalAlign=top;aspect=fixed;imageAspect=0;image=https://bilginc.com/editorFiles/3147aa77.png;" vertex="1" parent="z77YXMJVh_XE8eyvgZif-7">
          <mxGeometry x="24" y="16.130000000000003" width="76.09" height="50" as="geometry" />
        </mxCell>
        <mxCell id="z77YXMJVh_XE8eyvgZif-3" value="" style="shape=image;verticalLabelPosition=bottom;labelBackgroundColor=default;verticalAlign=top;aspect=fixed;imageAspect=0;image=https://cdn.worldvectorlogo.com/logos/typescript.svg;" vertex="1" parent="z77YXMJVh_XE8eyvgZif-7">
          <mxGeometry x="119" y="18.630000000000003" width="45" height="45" as="geometry" />
        </mxCell>
        <mxCell id="z77YXMJVh_XE8eyvgZif-4" value="" style="shape=image;verticalLabelPosition=bottom;labelBackgroundColor=default;verticalAlign=top;aspect=fixed;imageAspect=0;image=https://seeklogo.com/images/R/recoil-logo-6D0128B9E2-seeklogo.com.png;" vertex="1" parent="z77YXMJVh_XE8eyvgZif-7">
          <mxGeometry x="57.540000000000006" y="76.13" width="84.91" height="30" as="geometry" />
        </mxCell>
        <mxCell id="z77YXMJVh_XE8eyvgZif-5" value="" style="shape=image;verticalLabelPosition=bottom;labelBackgroundColor=default;verticalAlign=top;aspect=fixed;imageAspect=0;image=https://www.cdnlogo.com/logos/t/34/tailwind-css.svg;" vertex="1" parent="z77YXMJVh_XE8eyvgZif-7">
          <mxGeometry x="60" y="116.13" width="80" height="27.73" as="geometry" />
        </mxCell>
        <mxCell id="z77YXMJVh_XE8eyvgZif-8" value="" style="shape=image;verticalLabelPosition=bottom;labelBackgroundColor=default;verticalAlign=top;aspect=fixed;imageAspect=0;image=https://adroitgroup-io-storage.s3.eu-central-1.amazonaws.com/blog/2023-05-31_EQ4jqfcbWY_the-power-of-websocket-revolutionizing-real-time-communication-on-theweb-bannerImg.png;" vertex="1" parent="1">
          <mxGeometry x="260" y="87.9" width="180" height="64.2" as="geometry" />
        </mxCell>
        <mxCell id="z77YXMJVh_XE8eyvgZif-11" value="" style="group" vertex="1" connectable="0" parent="1">
          <mxGeometry x="460" y="70" width="210" height="100" as="geometry" />
        </mxCell>
        <mxCell id="z77YXMJVh_XE8eyvgZif-9" value="" style="rounded=1;whiteSpace=wrap;html=1;fillColor=#dae8fc;strokeColor=#6c8ebf;sketch=1;curveFitting=1;jiggle=2;" vertex="1" parent="z77YXMJVh_XE8eyvgZif-11">
          <mxGeometry width="210" height="100" as="geometry" />
        </mxCell>
        <mxCell id="z77YXMJVh_XE8eyvgZif-10" value="" style="shape=image;verticalLabelPosition=bottom;labelBackgroundColor=default;verticalAlign=top;aspect=fixed;imageAspect=0;image=https://upload.wikimedia.org/wikipedia/commons/thumb/1/1a/FastAPI_logo.svg/2560px-FastAPI_logo.svg.png;" vertex="1" parent="z77YXMJVh_XE8eyvgZif-11">
          <mxGeometry x="40" y="37.97000000000002" width="130" height="24.05" as="geometry" />
        </mxCell>
        <mxCell id="z77YXMJVh_XE8eyvgZif-12" style="edgeStyle=orthogonalEdgeStyle;rounded=0;orthogonalLoop=1;jettySize=auto;html=1;exitX=0.99;exitY=0.35;exitDx=0;exitDy=0;entryX=0;entryY=0.25;entryDx=0;entryDy=0;exitPerimeter=0;endArrow=open;endFill=0;" edge="1" parent="1" source="z77YXMJVh_XE8eyvgZif-1" target="z77YXMJVh_XE8eyvgZif-9">
          <mxGeometry relative="1" as="geometry" />
        </mxCell>
        <mxCell id="z77YXMJVh_XE8eyvgZif-13" style="edgeStyle=orthogonalEdgeStyle;rounded=0;orthogonalLoop=1;jettySize=auto;html=1;exitX=0;exitY=0.75;exitDx=0;exitDy=0;entryX=1;entryY=0.655;entryDx=0;entryDy=0;entryPerimeter=0;endArrow=open;endFill=0;" edge="1" parent="1" source="z77YXMJVh_XE8eyvgZif-9" target="z77YXMJVh_XE8eyvgZif-1">
          <mxGeometry relative="1" as="geometry" />
        </mxCell>
        <mxCell id="z77YXMJVh_XE8eyvgZif-16" value="" style="group" vertex="1" connectable="0" parent="1">
          <mxGeometry x="460" y="240" width="210" height="100" as="geometry" />
        </mxCell>
        <mxCell id="z77YXMJVh_XE8eyvgZif-14" value="" style="rounded=1;whiteSpace=wrap;html=1;fillColor=#d5e8d4;strokeColor=#82b366;sketch=1;curveFitting=1;jiggle=2;" vertex="1" parent="z77YXMJVh_XE8eyvgZif-16">
          <mxGeometry width="210" height="100" as="geometry" />
        </mxCell>
        <mxCell id="z77YXMJVh_XE8eyvgZif-15" value="" style="shape=image;verticalLabelPosition=bottom;labelBackgroundColor=default;verticalAlign=top;aspect=fixed;imageAspect=0;image=https://upload.wikimedia.org/wikipedia/commons/thumb/3/38/SQLite370.svg/2560px-SQLite370.svg.png;" vertex="1" parent="z77YXMJVh_XE8eyvgZif-16">
          <mxGeometry x="32.5" y="15.679999999999978" width="145" height="68.63" as="geometry" />
        </mxCell>
        <mxCell id="z77YXMJVh_XE8eyvgZif-17" value="&lt;font face=&quot;Comic Sans MS&quot;&gt;Frontend&lt;/font&gt;" style="text;html=1;align=center;verticalAlign=middle;whiteSpace=wrap;rounded=0;" vertex="1" parent="1">
          <mxGeometry x="110" y="10" width="60" height="30" as="geometry" />
        </mxCell>
        <mxCell id="z77YXMJVh_XE8eyvgZif-18" value="&lt;font face=&quot;Comic Sans MS&quot;&gt;Backend&lt;/font&gt;" style="text;html=1;align=center;verticalAlign=middle;whiteSpace=wrap;rounded=0;" vertex="1" parent="1">
          <mxGeometry x="535" y="40" width="60" height="30" as="geometry" />
        </mxCell>
        <mxCell id="z77YXMJVh_XE8eyvgZif-19" value="&lt;font face=&quot;Comic Sans MS&quot;&gt;Database&lt;/font&gt;" style="text;html=1;align=center;verticalAlign=middle;whiteSpace=wrap;rounded=0;" vertex="1" parent="1">
          <mxGeometry x="535" y="340" width="60" height="30" as="geometry" />
        </mxCell>
        <mxCell id="z77YXMJVh_XE8eyvgZif-20" style="edgeStyle=orthogonalEdgeStyle;rounded=0;orthogonalLoop=1;jettySize=auto;html=1;exitX=0.25;exitY=0;exitDx=0;exitDy=0;entryX=0.25;entryY=1;entryDx=0;entryDy=0;endArrow=open;endFill=0;" edge="1" parent="1" source="z77YXMJVh_XE8eyvgZif-14" target="z77YXMJVh_XE8eyvgZif-9">
          <mxGeometry relative="1" as="geometry" />
        </mxCell>
        <mxCell id="z77YXMJVh_XE8eyvgZif-21" style="edgeStyle=orthogonalEdgeStyle;rounded=0;orthogonalLoop=1;jettySize=auto;html=1;exitX=0.75;exitY=1;exitDx=0;exitDy=0;entryX=0.75;entryY=0;entryDx=0;entryDy=0;endArrow=open;endFill=0;" edge="1" parent="1" source="z77YXMJVh_XE8eyvgZif-9" target="z77YXMJVh_XE8eyvgZif-14">
          <mxGeometry relative="1" as="geometry" />
        </mxCell>
      </root>
    </mxGraphModel>
  </diagram>
  <diagram id="cTkPnKqBMVl9NYaxVyQH" name="Database">
    <mxGraphModel dx="662" dy="383" grid="1" gridSize="10" guides="1" tooltips="1" connect="1" arrows="1" fold="1" page="1" pageScale="1" pageWidth="850" pageHeight="1100" math="0" shadow="0">
      <root>
        <mxCell id="0" />
        <mxCell id="1" parent="0" />
        <mxCell id="NvE2DX-o_lfoTFulfMce-1" value="Task" style="swimlane;fontStyle=0;childLayout=stackLayout;horizontal=1;startSize=30;horizontalStack=0;resizeParent=1;resizeParentMax=0;resizeLast=0;collapsible=1;marginBottom=0;whiteSpace=wrap;html=1;" vertex="1" parent="1">
          <mxGeometry x="40" y="20" width="210" height="180" as="geometry" />
        </mxCell>
        <mxCell id="NvE2DX-o_lfoTFulfMce-5" value="Id(fk)&lt;span style=&quot;white-space: pre;&quot;&gt;&#x9;&lt;/span&gt;&lt;span style=&quot;white-space: pre;&quot;&gt;&#x9;&lt;/span&gt;&lt;span style=&quot;white-space: pre;&quot;&gt;&#x9;&lt;/span&gt;INT" style="text;strokeColor=none;fillColor=none;align=left;verticalAlign=middle;spacingLeft=4;spacingRight=4;overflow=hidden;points=[[0,0.5],[1,0.5]];portConstraint=eastwest;rotatable=0;whiteSpace=wrap;html=1;" vertex="1" parent="NvE2DX-o_lfoTFulfMce-1">
          <mxGeometry y="30" width="210" height="30" as="geometry" />
        </mxCell>
        <mxCell id="NvE2DX-o_lfoTFulfMce-2" value="Status&lt;span style=&quot;white-space: pre;&quot;&gt;&#x9;&lt;/span&gt;&lt;span style=&quot;white-space: pre;&quot;&gt;&#x9;&lt;span style=&quot;white-space: pre;&quot;&gt;&#x9;&lt;/span&gt;&lt;/span&gt;VARCHAR(20)" style="text;strokeColor=none;fillColor=none;align=left;verticalAlign=middle;spacingLeft=4;spacingRight=4;overflow=hidden;points=[[0,0.5],[1,0.5]];portConstraint=eastwest;rotatable=0;whiteSpace=wrap;html=1;" vertex="1" parent="NvE2DX-o_lfoTFulfMce-1">
          <mxGeometry y="60" width="210" height="30" as="geometry" />
        </mxCell>
        <mxCell id="NvE2DX-o_lfoTFulfMce-3" value="Summary&lt;span style=&quot;white-space: pre;&quot;&gt;&#x9;&lt;/span&gt;&lt;span style=&quot;white-space: pre;&quot;&gt;&#x9;&lt;/span&gt;&lt;span style=&quot;white-space: pre;&quot;&gt;&#x9;&lt;/span&gt;TEXT" style="text;strokeColor=none;fillColor=none;align=left;verticalAlign=middle;spacingLeft=4;spacingRight=4;overflow=hidden;points=[[0,0.5],[1,0.5]];portConstraint=eastwest;rotatable=0;whiteSpace=wrap;html=1;" vertex="1" parent="NvE2DX-o_lfoTFulfMce-1">
          <mxGeometry y="90" width="210" height="30" as="geometry" />
        </mxCell>
        <mxCell id="NvE2DX-o_lfoTFulfMce-4" value="Description&lt;span style=&quot;white-space: pre;&quot;&gt;&#x9;&lt;/span&gt;&lt;span style=&quot;white-space: pre;&quot;&gt;&#x9;&lt;/span&gt;TEXT" style="text;strokeColor=none;fillColor=none;align=left;verticalAlign=middle;spacingLeft=4;spacingRight=4;overflow=hidden;points=[[0,0.5],[1,0.5]];portConstraint=eastwest;rotatable=0;whiteSpace=wrap;html=1;" vertex="1" parent="NvE2DX-o_lfoTFulfMce-1">
          <mxGeometry y="120" width="210" height="30" as="geometry" />
        </mxCell>
        <mxCell id="NvE2DX-o_lfoTFulfMce-6" value="Assignee&lt;span style=&quot;white-space: pre;&quot;&gt;&#x9;&lt;/span&gt;&lt;span style=&quot;white-space: pre;&quot;&gt;&#x9;&lt;/span&gt;&lt;span style=&quot;white-space: pre;&quot;&gt;&#x9;&lt;/span&gt;VARCHAR(100)" style="text;strokeColor=none;fillColor=none;align=left;verticalAlign=middle;spacingLeft=4;spacingRight=4;overflow=hidden;points=[[0,0.5],[1,0.5]];portConstraint=eastwest;rotatable=0;whiteSpace=wrap;html=1;" vertex="1" parent="NvE2DX-o_lfoTFulfMce-1">
          <mxGeometry y="150" width="210" height="30" as="geometry" />
        </mxCell>
      </root>
    </mxGraphModel>
  </diagram>
</mxfile>
